<mxfile host="Electron" agent="Mozilla/5.0 (Windows NT 10.0; Win64; x64) AppleWebKit/537.36 (KHTML, like Gecko) draw.io/26.0.4 Chrome/128.0.6613.186 Electron/32.2.5 Safari/537.36" version="26.0.4" pages="2">
  <diagram name="Overall" id="1M6tDfKGmsmMH0d5f9qq">
    <mxGraphModel dx="1727" dy="2181" grid="1" gridSize="10" guides="1" tooltips="1" connect="1" arrows="1" fold="1" page="1" pageScale="1" pageWidth="1654" pageHeight="1169" math="0" shadow="0">
      <root>
        <mxCell id="0" />
        <mxCell id="1" parent="0" />
        <mxCell id="UizIiApyNbYnQmB1jHu1-9" value="" style="group" parent="1" vertex="1" connectable="0">
          <mxGeometry x="335" y="150" width="100" height="67" as="geometry" />
        </mxCell>
        <mxCell id="UizIiApyNbYnQmB1jHu1-1" value="Wakeboarder with BT beacon" style="shape=umlActor;verticalLabelPosition=bottom;verticalAlign=top;html=1;outlineConnect=0;" parent="UizIiApyNbYnQmB1jHu1-9" vertex="1">
          <mxGeometry x="35" width="30" height="60" as="geometry" />
        </mxCell>
        <mxCell id="UizIiApyNbYnQmB1jHu1-3" value="" style="shape=dataStorage;whiteSpace=wrap;html=1;fixedSize=1;" parent="UizIiApyNbYnQmB1jHu1-9" vertex="1">
          <mxGeometry y="57" width="100" height="10" as="geometry" />
        </mxCell>
        <mxCell id="UizIiApyNbYnQmB1jHu1-13" value="" style="rounded=0;whiteSpace=wrap;html=1;" parent="1" vertex="1">
          <mxGeometry x="230" y="580" width="310" height="140" as="geometry" />
        </mxCell>
        <mxCell id="UizIiApyNbYnQmB1jHu1-6" value="Camera" style="rounded=0;whiteSpace=wrap;html=1;" parent="1" vertex="1">
          <mxGeometry x="265" y="565" width="120" height="50" as="geometry" />
        </mxCell>
        <mxCell id="UizIiApyNbYnQmB1jHu1-16" value="SBC" style="rounded=0;whiteSpace=wrap;html=1;" parent="1" vertex="1">
          <mxGeometry x="305" y="640" width="120" height="50" as="geometry" />
        </mxCell>
        <mxCell id="UizIiApyNbYnQmB1jHu1-17" value="BT antenna" style="rounded=0;whiteSpace=wrap;html=1;" parent="1" vertex="1">
          <mxGeometry x="405" y="565" width="120" height="60" as="geometry" />
        </mxCell>
        <mxCell id="UizIiApyNbYnQmB1jHu1-18" value="" style="ellipse;shape=cloud;whiteSpace=wrap;html=1;" parent="1" vertex="1">
          <mxGeometry x="490" y="859" width="390" height="270" as="geometry" />
        </mxCell>
        <mxCell id="UizIiApyNbYnQmB1jHu1-19" value="User phone" style="shape=umlActor;verticalLabelPosition=bottom;verticalAlign=top;html=1;outlineConnect=0;" parent="1" vertex="1">
          <mxGeometry x="1280" y="964" width="30" height="60" as="geometry" />
        </mxCell>
        <mxCell id="UizIiApyNbYnQmB1jHu1-20" value="" style="endArrow=none;dashed=1;html=1;dashPattern=1 3;strokeWidth=2;rounded=0;exitX=0.96;exitY=0.7;exitDx=0;exitDy=0;exitPerimeter=0;entryX=0;entryY=0.3333333333333333;entryDx=0;entryDy=0;entryPerimeter=0;" parent="1" source="UizIiApyNbYnQmB1jHu1-18" target="UizIiApyNbYnQmB1jHu1-19" edge="1">
          <mxGeometry width="50" height="50" relative="1" as="geometry">
            <mxPoint x="1150" y="940" as="sourcePoint" />
            <mxPoint x="1200" y="890" as="targetPoint" />
          </mxGeometry>
        </mxCell>
        <mxCell id="UizIiApyNbYnQmB1jHu1-21" value="" style="endArrow=none;dashed=1;html=1;dashPattern=1 3;strokeWidth=2;rounded=0;exitX=0.5;exitY=1;exitDx=0;exitDy=0;entryX=0.07;entryY=0.4;entryDx=0;entryDy=0;entryPerimeter=0;" parent="1" source="UizIiApyNbYnQmB1jHu1-13" target="UizIiApyNbYnQmB1jHu1-18" edge="1">
          <mxGeometry width="50" height="50" relative="1" as="geometry">
            <mxPoint x="1160" y="560" as="sourcePoint" />
            <mxPoint x="1210" y="510" as="targetPoint" />
          </mxGeometry>
        </mxCell>
        <mxCell id="UizIiApyNbYnQmB1jHu1-23" value="" style="endArrow=none;dashed=1;html=1;rounded=0;exitX=1;exitY=0;exitDx=0;exitDy=0;" parent="1" source="UizIiApyNbYnQmB1jHu1-13" edge="1">
          <mxGeometry width="50" height="50" relative="1" as="geometry">
            <mxPoint x="590" y="390" as="sourcePoint" />
            <mxPoint x="670" y="270" as="targetPoint" />
          </mxGeometry>
        </mxCell>
        <mxCell id="UizIiApyNbYnQmB1jHu1-24" value="" style="endArrow=none;dashed=1;html=1;rounded=0;exitX=0;exitY=0;exitDx=0;exitDy=0;" parent="1" source="UizIiApyNbYnQmB1jHu1-13" edge="1">
          <mxGeometry width="50" height="50" relative="1" as="geometry">
            <mxPoint x="550" y="590" as="sourcePoint" />
            <mxPoint x="130" y="290" as="targetPoint" />
          </mxGeometry>
        </mxCell>
        <mxCell id="UizIiApyNbYnQmB1jHu1-25" value="" style="ellipse;whiteSpace=wrap;html=1;aspect=fixed;fillColor=none;" parent="1" vertex="1">
          <mxGeometry x="275" y="80" width="220" height="220" as="geometry" />
        </mxCell>
        <mxCell id="UizIiApyNbYnQmB1jHu1-26" value="" style="ellipse;whiteSpace=wrap;html=1;aspect=fixed;fillColor=none;" parent="1" vertex="1">
          <mxGeometry x="204.25" y="9.25" width="361.5" height="361.5" as="geometry" />
        </mxCell>
        <mxCell id="UizIiApyNbYnQmB1jHu1-27" value="" style="ellipse;whiteSpace=wrap;html=1;aspect=fixed;fillColor=none;" parent="1" vertex="1">
          <mxGeometry x="154.62" y="-40.370000000000005" width="460.75" height="460.75" as="geometry" />
        </mxCell>
      </root>
    </mxGraphModel>
  </diagram>
  <diagram id="RfBYr6p8CnRR7MTBo1aI" name="Edge application">
    <mxGraphModel dx="1727" dy="1012" grid="1" gridSize="10" guides="1" tooltips="1" connect="1" arrows="1" fold="1" page="1" pageScale="1" pageWidth="1169" pageHeight="827" math="0" shadow="0">
      <root>
        <mxCell id="0" />
        <mxCell id="1" parent="0" />
        <mxCell id="eb0_rVteDaA9Aq2EagRB-2" value="Edge device runneing edge application" style="rounded=0;whiteSpace=wrap;html=1;fillColor=none;verticalAlign=top;" vertex="1" parent="1">
          <mxGeometry x="350" y="77" width="930" height="710" as="geometry" />
        </mxCell>
        <mxCell id="eb0_rVteDaA9Aq2EagRB-1" value="GoPro" style="rounded=1;whiteSpace=wrap;html=1;verticalAlign=top;" vertex="1" parent="1">
          <mxGeometry x="50" y="70" width="160" height="280" as="geometry" />
        </mxCell>
        <mxCell id="kH8DbkCi8xg7oMNGMvGQ-1" value="Box" style="ellipse;shape=cloud;whiteSpace=wrap;html=1;" vertex="1" parent="1">
          <mxGeometry x="10" y="405" width="210" height="170" as="geometry" />
        </mxCell>
        <mxCell id="kH8DbkCi8xg7oMNGMvGQ-2" value="" style="group" vertex="1" connectable="0" parent="1">
          <mxGeometry x="160" y="650" width="40" height="50" as="geometry" />
        </mxCell>
        <mxCell id="qCN3wrOcgu_-5htFF8kY-1" value="" style="endArrow=none;html=1;rounded=0;" edge="1" parent="kH8DbkCi8xg7oMNGMvGQ-2">
          <mxGeometry width="50" height="50" relative="1" as="geometry">
            <mxPoint x="20" y="50" as="sourcePoint" />
            <mxPoint x="20" as="targetPoint" />
          </mxGeometry>
        </mxCell>
        <mxCell id="qCN3wrOcgu_-5htFF8kY-2" value="" style="endArrow=none;html=1;rounded=0;" edge="1" parent="kH8DbkCi8xg7oMNGMvGQ-2">
          <mxGeometry width="50" height="50" relative="1" as="geometry">
            <mxPoint x="20" y="30" as="sourcePoint" />
            <mxPoint x="40" as="targetPoint" />
          </mxGeometry>
        </mxCell>
        <mxCell id="qCN3wrOcgu_-5htFF8kY-3" value="" style="endArrow=none;html=1;rounded=0;" edge="1" parent="kH8DbkCi8xg7oMNGMvGQ-2">
          <mxGeometry width="50" height="50" relative="1" as="geometry">
            <mxPoint as="sourcePoint" />
            <mxPoint x="20" y="30" as="targetPoint" />
          </mxGeometry>
        </mxCell>
        <mxCell id="kH8DbkCi8xg7oMNGMvGQ-6" value="" style="endArrow=classic;html=1;rounded=0;entryX=0.003;entryY=0.063;entryDx=0;entryDy=0;entryPerimeter=0;" edge="1" parent="1">
          <mxGeometry relative="1" as="geometry">
            <mxPoint x="210" y="166" as="sourcePoint" />
            <mxPoint x="351.9200000000001" y="167.72999999999996" as="targetPoint" />
          </mxGeometry>
        </mxCell>
        <mxCell id="kH8DbkCi8xg7oMNGMvGQ-7" value="Preview video" style="edgeLabel;resizable=0;html=1;;align=center;verticalAlign=middle;" connectable="0" vertex="1" parent="kH8DbkCi8xg7oMNGMvGQ-6">
          <mxGeometry relative="1" as="geometry">
            <mxPoint y="-8" as="offset" />
          </mxGeometry>
        </mxCell>
        <mxCell id="kH8DbkCi8xg7oMNGMvGQ-9" value="&lt;div&gt;Thread 1:&lt;/div&gt;Edge application state machine" style="rounded=1;whiteSpace=wrap;html=1;verticalAlign=top;" vertex="1" parent="1">
          <mxGeometry x="525" y="100" width="140" height="75" as="geometry" />
        </mxCell>
        <mxCell id="kH8DbkCi8xg7oMNGMvGQ-10" value="" style="endArrow=classic;html=1;rounded=0;entryX=-0.004;entryY=0.849;entryDx=0;entryDy=0;entryPerimeter=0;" edge="1" parent="1" target="eb0_rVteDaA9Aq2EagRB-2">
          <mxGeometry relative="1" as="geometry">
            <mxPoint x="190" y="680" as="sourcePoint" />
            <mxPoint x="349.99999999999955" y="662" as="targetPoint" />
          </mxGeometry>
        </mxCell>
        <mxCell id="kH8DbkCi8xg7oMNGMvGQ-11" value="Bluetooth signals" style="edgeLabel;resizable=0;html=1;;align=center;verticalAlign=middle;" connectable="0" vertex="1" parent="kH8DbkCi8xg7oMNGMvGQ-10">
          <mxGeometry relative="1" as="geometry" />
        </mxCell>
        <mxCell id="kH8DbkCi8xg7oMNGMvGQ-22" value="SD memory" style="shape=datastore;whiteSpace=wrap;html=1;" vertex="1" parent="1">
          <mxGeometry x="110" y="275" width="60" height="60" as="geometry" />
        </mxCell>
        <mxCell id="kH8DbkCi8xg7oMNGMvGQ-23" value="FIFO" style="shape=partialRectangle;whiteSpace=wrap;html=1;left=0;right=0;fillColor=none;" vertex="1" parent="1">
          <mxGeometry x="770" y="365" width="60" height="40" as="geometry" />
        </mxCell>
        <mxCell id="kH8DbkCi8xg7oMNGMvGQ-25" value="SBC flash" style="shape=datastore;whiteSpace=wrap;html=1;" vertex="1" parent="1">
          <mxGeometry x="379" y="278" width="60" height="60" as="geometry" />
        </mxCell>
        <mxCell id="kH8DbkCi8xg7oMNGMvGQ-28" value="" style="endArrow=classic;html=1;rounded=0;entryX=0;entryY=0.3;entryDx=0;entryDy=0;exitX=1;exitY=0.3;exitDx=0;exitDy=0;" edge="1" parent="1" source="kH8DbkCi8xg7oMNGMvGQ-22" target="kH8DbkCi8xg7oMNGMvGQ-25">
          <mxGeometry relative="1" as="geometry">
            <mxPoint x="230" y="270" as="sourcePoint" />
            <mxPoint x="367" y="272" as="targetPoint" />
          </mxGeometry>
        </mxCell>
        <mxCell id="kH8DbkCi8xg7oMNGMvGQ-29" value="Copy to local" style="edgeLabel;resizable=0;html=1;;align=center;verticalAlign=middle;" connectable="0" vertex="1" parent="kH8DbkCi8xg7oMNGMvGQ-28">
          <mxGeometry relative="1" as="geometry">
            <mxPoint y="-7" as="offset" />
          </mxGeometry>
        </mxCell>
        <mxCell id="kH8DbkCi8xg7oMNGMvGQ-30" value="" style="endArrow=classic;html=1;rounded=0;entryX=1.01;entryY=0.604;entryDx=0;entryDy=0;entryPerimeter=0;exitX=-0.001;exitY=0.189;exitDx=0;exitDy=0;exitPerimeter=0;" edge="1" parent="1">
          <mxGeometry relative="1" as="geometry">
            <mxPoint x="347.75999999999965" y="224.99999999999994" as="sourcePoint" />
            <mxPoint x="209.99999999999991" y="222.72999999999996" as="targetPoint" />
          </mxGeometry>
        </mxCell>
        <mxCell id="kH8DbkCi8xg7oMNGMvGQ-31" value="Start/stop record" style="edgeLabel;resizable=0;html=1;;align=center;verticalAlign=middle;" connectable="0" vertex="1" parent="kH8DbkCi8xg7oMNGMvGQ-30">
          <mxGeometry relative="1" as="geometry">
            <mxPoint y="-9" as="offset" />
          </mxGeometry>
        </mxCell>
        <mxCell id="kH8DbkCi8xg7oMNGMvGQ-32" value="" style="endArrow=classic;html=1;rounded=0;entryX=1.006;entryY=0.097;entryDx=0;entryDy=0;entryPerimeter=0;exitX=-0.001;exitY=0.189;exitDx=0;exitDy=0;exitPerimeter=0;" edge="1" parent="1">
          <mxGeometry relative="1" as="geometry">
            <mxPoint x="349.99999999999966" y="138.26999999999995" as="sourcePoint" />
            <mxPoint x="210.96000000000004" y="138.31" as="targetPoint" />
          </mxGeometry>
        </mxCell>
        <mxCell id="kH8DbkCi8xg7oMNGMvGQ-33" value="Start/stop preview" style="edgeLabel;resizable=0;html=1;;align=center;verticalAlign=middle;" connectable="0" vertex="1" parent="kH8DbkCi8xg7oMNGMvGQ-32">
          <mxGeometry relative="1" as="geometry">
            <mxPoint y="-8" as="offset" />
          </mxGeometry>
        </mxCell>
        <mxCell id="kH8DbkCi8xg7oMNGMvGQ-35" value="" style="endArrow=classic;html=1;rounded=0;entryX=1.01;entryY=0.604;entryDx=0;entryDy=0;entryPerimeter=0;exitX=-0.001;exitY=0.189;exitDx=0;exitDy=0;exitPerimeter=0;" edge="1" parent="1">
          <mxGeometry relative="1" as="geometry">
            <mxPoint x="347.75999999999965" y="202.26999999999995" as="sourcePoint" />
            <mxPoint x="209.99999999999991" y="199.99999999999997" as="targetPoint" />
          </mxGeometry>
        </mxCell>
        <mxCell id="kH8DbkCi8xg7oMNGMvGQ-36" value="Start Hindsight mode" style="edgeLabel;resizable=0;html=1;;align=center;verticalAlign=middle;" connectable="0" vertex="1" parent="kH8DbkCi8xg7oMNGMvGQ-35">
          <mxGeometry relative="1" as="geometry">
            <mxPoint y="-11" as="offset" />
          </mxGeometry>
        </mxCell>
        <mxCell id="kH8DbkCi8xg7oMNGMvGQ-37" value="" style="endArrow=classic;html=1;rounded=0;entryX=1;entryY=0.7;entryDx=0;entryDy=0;exitX=0.002;exitY=0.27;exitDx=0;exitDy=0;exitPerimeter=0;" edge="1" parent="1" target="kH8DbkCi8xg7oMNGMvGQ-22">
          <mxGeometry relative="1" as="geometry">
            <mxPoint x="352.24000000000024" y="318.70000000000005" as="sourcePoint" />
            <mxPoint x="390" y="339.76" as="targetPoint" />
          </mxGeometry>
        </mxCell>
        <mxCell id="kH8DbkCi8xg7oMNGMvGQ-38" value="Delete file" style="edgeLabel;resizable=0;html=1;;align=center;verticalAlign=middle;" connectable="0" vertex="1" parent="kH8DbkCi8xg7oMNGMvGQ-37">
          <mxGeometry relative="1" as="geometry">
            <mxPoint y="-10" as="offset" />
          </mxGeometry>
        </mxCell>
        <mxCell id="kH8DbkCi8xg7oMNGMvGQ-39" value="" style="endArrow=classic;html=1;rounded=0;entryX=1.006;entryY=0.097;entryDx=0;entryDy=0;entryPerimeter=0;exitX=-0.001;exitY=0.189;exitDx=0;exitDy=0;exitPerimeter=0;" edge="1" parent="1">
          <mxGeometry relative="1" as="geometry">
            <mxPoint x="349.99999999999966" y="99.99999999999994" as="sourcePoint" />
            <mxPoint x="210.96000000000004" y="100.03999999999999" as="targetPoint" />
          </mxGeometry>
        </mxCell>
        <mxCell id="kH8DbkCi8xg7oMNGMvGQ-40" value="Set config" style="edgeLabel;resizable=0;html=1;;align=center;verticalAlign=middle;" connectable="0" vertex="1" parent="kH8DbkCi8xg7oMNGMvGQ-39">
          <mxGeometry relative="1" as="geometry">
            <mxPoint y="-8" as="offset" />
          </mxGeometry>
        </mxCell>
        <mxCell id="kH8DbkCi8xg7oMNGMvGQ-41" value="" style="endArrow=classic;html=1;rounded=0;entryX=1.01;entryY=0.604;entryDx=0;entryDy=0;entryPerimeter=0;exitX=-0.004;exitY=0.552;exitDx=0;exitDy=0;exitPerimeter=0;" edge="1" parent="1" source="eb0_rVteDaA9Aq2EagRB-2">
          <mxGeometry relative="1" as="geometry">
            <mxPoint x="339.99999999999966" y="467.27" as="sourcePoint" />
            <mxPoint x="202.23999999999992" y="465" as="targetPoint" />
          </mxGeometry>
        </mxCell>
        <mxCell id="kH8DbkCi8xg7oMNGMvGQ-42" value="Upload video" style="edgeLabel;resizable=0;html=1;;align=center;verticalAlign=middle;" connectable="0" vertex="1" parent="kH8DbkCi8xg7oMNGMvGQ-41">
          <mxGeometry relative="1" as="geometry">
            <mxPoint y="-9" as="offset" />
          </mxGeometry>
        </mxCell>
        <mxCell id="kH8DbkCi8xg7oMNGMvGQ-43" value="" style="endArrow=classic;html=1;rounded=0;entryX=1.01;entryY=0.604;entryDx=0;entryDy=0;entryPerimeter=0;exitX=-0.001;exitY=0.189;exitDx=0;exitDy=0;exitPerimeter=0;" edge="1" parent="1">
          <mxGeometry relative="1" as="geometry">
            <mxPoint x="349.99999999999966" y="517.27" as="sourcePoint" />
            <mxPoint x="212.23999999999992" y="515" as="targetPoint" />
          </mxGeometry>
        </mxCell>
        <mxCell id="kH8DbkCi8xg7oMNGMvGQ-44" value="Upload bluetooth" style="edgeLabel;resizable=0;html=1;;align=center;verticalAlign=middle;" connectable="0" vertex="1" parent="kH8DbkCi8xg7oMNGMvGQ-43">
          <mxGeometry relative="1" as="geometry">
            <mxPoint y="-9" as="offset" />
          </mxGeometry>
        </mxCell>
        <mxCell id="kH8DbkCi8xg7oMNGMvGQ-45" value="" style="endArrow=classic;html=1;rounded=0;entryX=1;entryY=0.5;entryDx=0;entryDy=0;exitX=1;exitY=0.5;exitDx=0;exitDy=0;" edge="1" parent="1" source="kH8DbkCi8xg7oMNGMvGQ-63" target="kH8DbkCi8xg7oMNGMvGQ-23">
          <mxGeometry relative="1" as="geometry">
            <mxPoint x="680" y="189.8499999999999" as="sourcePoint" />
            <mxPoint x="222.23999999999992" y="330" as="targetPoint" />
            <Array as="points">
              <mxPoint x="1120" y="280" />
              <mxPoint x="1120" y="385" />
            </Array>
          </mxGeometry>
        </mxCell>
        <mxCell id="kH8DbkCi8xg7oMNGMvGQ-46" value="Que video for post-process&amp;nbsp;&lt;div&gt;[name]&lt;/div&gt;" style="edgeLabel;resizable=0;html=1;;align=center;verticalAlign=middle;" connectable="0" vertex="1" parent="kH8DbkCi8xg7oMNGMvGQ-45">
          <mxGeometry relative="1" as="geometry">
            <mxPoint x="-147" y="-20" as="offset" />
          </mxGeometry>
        </mxCell>
        <mxCell id="kH8DbkCi8xg7oMNGMvGQ-47" value="&lt;div&gt;Thread 3:&lt;/div&gt;Edge post processing" style="rounded=1;whiteSpace=wrap;html=1;verticalAlign=top;" vertex="1" parent="1">
          <mxGeometry x="545" y="427.5" width="325" height="130" as="geometry" />
        </mxCell>
        <mxCell id="kH8DbkCi8xg7oMNGMvGQ-48" value="" style="endArrow=classic;html=1;rounded=0;entryX=0;entryY=0.5;entryDx=0;entryDy=0;exitX=0;exitY=0.5;exitDx=0;exitDy=0;" edge="1" parent="1" source="kH8DbkCi8xg7oMNGMvGQ-23" target="kH8DbkCi8xg7oMNGMvGQ-47">
          <mxGeometry relative="1" as="geometry">
            <mxPoint x="845" y="225" as="sourcePoint" />
            <mxPoint x="895" y="305" as="targetPoint" />
            <Array as="points">
              <mxPoint x="480" y="390" />
              <mxPoint x="480" y="493" />
            </Array>
          </mxGeometry>
        </mxCell>
        <mxCell id="kH8DbkCi8xg7oMNGMvGQ-50" value="" style="swimlane;childLayout=stackLayout;horizontal=1;fillColor=none;horizontalStack=1;resizeParent=1;resizeParentMax=0;resizeLast=0;collapsible=0;strokeColor=none;stackBorder=10;stackSpacing=-12;resizable=1;align=center;points=[];whiteSpace=wrap;html=1;" vertex="1" parent="1">
          <mxGeometry x="545" y="454" width="316" height="103" as="geometry" />
        </mxCell>
        <mxCell id="kH8DbkCi8xg7oMNGMvGQ-51" value="?" style="shape=step;perimeter=stepPerimeter;fixedSize=1;points=[];whiteSpace=wrap;html=1;" vertex="1" parent="kH8DbkCi8xg7oMNGMvGQ-50">
          <mxGeometry x="10" y="33" width="120" height="60" as="geometry" />
        </mxCell>
        <mxCell id="kH8DbkCi8xg7oMNGMvGQ-52" value="Trajectory estimation" style="shape=step;perimeter=stepPerimeter;fixedSize=1;points=[];whiteSpace=wrap;html=1;" vertex="1" parent="kH8DbkCi8xg7oMNGMvGQ-50">
          <mxGeometry x="118" y="33" width="100" height="60" as="geometry" />
        </mxCell>
        <mxCell id="kH8DbkCi8xg7oMNGMvGQ-53" value="&amp;nbsp; &amp;nbsp;Cut out video clip" style="shape=step;perimeter=stepPerimeter;fixedSize=1;points=[];whiteSpace=wrap;html=1;" vertex="1" parent="kH8DbkCi8xg7oMNGMvGQ-50">
          <mxGeometry x="206" y="33" width="100" height="60" as="geometry" />
        </mxCell>
        <mxCell id="kH8DbkCi8xg7oMNGMvGQ-65" value="" style="edgeStyle=orthogonalEdgeStyle;rounded=0;orthogonalLoop=1;jettySize=auto;html=1;endArrow=none;endFill=0;startArrow=classic;startFill=1;" edge="1" parent="1" source="kH8DbkCi8xg7oMNGMvGQ-54" target="kH8DbkCi8xg7oMNGMvGQ-47">
          <mxGeometry relative="1" as="geometry" />
        </mxCell>
        <mxCell id="kH8DbkCi8xg7oMNGMvGQ-54" value="FIFO" style="shape=partialRectangle;whiteSpace=wrap;html=1;left=0;right=0;fillColor=none;" vertex="1" parent="1">
          <mxGeometry x="910" y="472.5" width="70" height="40" as="geometry" />
        </mxCell>
        <mxCell id="kH8DbkCi8xg7oMNGMvGQ-55" value="&lt;div&gt;Thread 4:&lt;/div&gt;Cloud upload" style="rounded=1;whiteSpace=wrap;html=1;verticalAlign=top;" vertex="1" parent="1">
          <mxGeometry x="1030" y="442.5" width="150" height="100" as="geometry" />
        </mxCell>
        <mxCell id="kH8DbkCi8xg7oMNGMvGQ-58" value="" style="endArrow=classic;html=1;rounded=0;entryX=0;entryY=0.5;entryDx=0;entryDy=0;exitX=1;exitY=0.5;exitDx=0;exitDy=0;" edge="1" parent="1" source="kH8DbkCi8xg7oMNGMvGQ-54" target="kH8DbkCi8xg7oMNGMvGQ-55">
          <mxGeometry relative="1" as="geometry">
            <mxPoint x="850" y="442.5" as="sourcePoint" />
            <mxPoint x="960" y="448.9999999999999" as="targetPoint" />
            <Array as="points" />
          </mxGeometry>
        </mxCell>
        <mxCell id="kH8DbkCi8xg7oMNGMvGQ-59" value="Edge post processed file" style="edgeLabel;html=1;align=center;verticalAlign=middle;resizable=0;points=[];" vertex="1" connectable="0" parent="kH8DbkCi8xg7oMNGMvGQ-58">
          <mxGeometry x="0.5348" y="4" relative="1" as="geometry">
            <mxPoint x="-79" y="49" as="offset" />
          </mxGeometry>
        </mxCell>
        <mxCell id="kH8DbkCi8xg7oMNGMvGQ-60" value="Upload&lt;div&gt;&lt;/div&gt;" style="rounded=1;whiteSpace=wrap;html=1;verticalAlign=middle;" vertex="1" parent="1">
          <mxGeometry x="1059" y="502.5" width="100" height="35" as="geometry" />
        </mxCell>
        <mxCell id="kH8DbkCi8xg7oMNGMvGQ-61" value="&lt;div&gt;Thread 5:&lt;/div&gt;&lt;div&gt;BLE recieve state machine&lt;/div&gt;" style="rounded=1;whiteSpace=wrap;html=1;verticalAlign=top;" vertex="1" parent="1">
          <mxGeometry x="410" y="610" width="140" height="90" as="geometry" />
        </mxCell>
        <mxCell id="kH8DbkCi8xg7oMNGMvGQ-62" value="" style="shape=flexArrow;endArrow=classic;startArrow=classic;html=1;rounded=0;entryX=0;entryY=0.5;entryDx=0;entryDy=0;" edge="1" parent="1" target="kH8DbkCi8xg7oMNGMvGQ-9">
          <mxGeometry width="100" height="100" relative="1" as="geometry">
            <mxPoint x="356" y="138" as="sourcePoint" />
            <mxPoint x="480" y="90" as="targetPoint" />
          </mxGeometry>
        </mxCell>
        <mxCell id="kH8DbkCi8xg7oMNGMvGQ-63" value="&lt;div&gt;Thread 2:&lt;/div&gt;&lt;div&gt;Move files to local&lt;/div&gt;" style="rounded=1;whiteSpace=wrap;html=1;verticalAlign=top;" vertex="1" parent="1">
          <mxGeometry x="710" y="222.5" width="350" height="115" as="geometry" />
        </mxCell>
        <mxCell id="kH8DbkCi8xg7oMNGMvGQ-68" value="" style="swimlane;childLayout=stackLayout;horizontal=1;fillColor=none;horizontalStack=1;resizeParent=1;resizeParentMax=0;resizeLast=0;collapsible=0;strokeColor=none;stackBorder=10;stackSpacing=-12;resizable=1;align=center;points=[];whiteSpace=wrap;html=1;" vertex="1" parent="1">
          <mxGeometry x="720" y="240" width="316" height="103" as="geometry" />
        </mxCell>
        <mxCell id="kH8DbkCi8xg7oMNGMvGQ-69" value="Look for new&amp;nbsp;&lt;div&gt;&amp;nbsp; files on SD card&lt;/div&gt;" style="shape=step;perimeter=stepPerimeter;fixedSize=1;points=[];whiteSpace=wrap;html=1;" vertex="1" parent="kH8DbkCi8xg7oMNGMvGQ-68">
          <mxGeometry x="10" y="33" width="120" height="60" as="geometry" />
        </mxCell>
        <mxCell id="kH8DbkCi8xg7oMNGMvGQ-70" value="Copy file" style="shape=step;perimeter=stepPerimeter;fixedSize=1;points=[];whiteSpace=wrap;html=1;" vertex="1" parent="kH8DbkCi8xg7oMNGMvGQ-68">
          <mxGeometry x="118" y="33" width="100" height="60" as="geometry" />
        </mxCell>
        <mxCell id="kH8DbkCi8xg7oMNGMvGQ-71" value="Delete file &lt;br&gt;from SD" style="shape=step;perimeter=stepPerimeter;fixedSize=1;points=[];whiteSpace=wrap;html=1;" vertex="1" parent="kH8DbkCi8xg7oMNGMvGQ-68">
          <mxGeometry x="206" y="33" width="100" height="60" as="geometry" />
        </mxCell>
        <mxCell id="kH8DbkCi8xg7oMNGMvGQ-72" value="" style="endArrow=classic;html=1;rounded=0;entryX=0.15;entryY=0.05;entryDx=0;entryDy=0;exitX=0.85;exitY=0.05;exitDx=0;exitDy=0;startArrow=classic;startFill=1;entryPerimeter=0;exitPerimeter=0;" edge="1" parent="1" source="kH8DbkCi8xg7oMNGMvGQ-22" target="kH8DbkCi8xg7oMNGMvGQ-25">
          <mxGeometry relative="1" as="geometry">
            <mxPoint x="150" y="265" as="sourcePoint" />
            <mxPoint x="360" y="267" as="targetPoint" />
          </mxGeometry>
        </mxCell>
        <mxCell id="kH8DbkCi8xg7oMNGMvGQ-73" value="List files" style="edgeLabel;resizable=0;html=1;;align=center;verticalAlign=middle;" connectable="0" vertex="1" parent="kH8DbkCi8xg7oMNGMvGQ-72">
          <mxGeometry relative="1" as="geometry">
            <mxPoint y="-10" as="offset" />
          </mxGeometry>
        </mxCell>
      </root>
    </mxGraphModel>
  </diagram>
</mxfile>
